=!HD DESI ROCKER RELEASES!=












 

Release Title: Up 720p Brrip[Dual Audio] [Eng-Hindi]~BONIIN
Release Date: 24 October 2009
Release Length: 1h 32mn
Storyline: A young Carl Fredrickson meets a young adventure spirited girl named Ellie.
They both dream of going to a Lost Land in South America. 70 years later, Ellie has died. Carl remembers the promise
he made to her. Then, when he inadvertently hits a construction worker, he is forced to go to a retirement home. But
before they can take him, he and his house fly away. However he has a stowaway aboard. An 8 year old boy named Russell,
whose trying to get an assisting the elderly badge. Together, they embark in an adventure, where they encounter talking
dogs, an evil villain and a rare bird named Kevin.




Cast:

Edward Asner ... Carl Fredricksen (voice) (as Ed Asner)
Christopher Plummer ... Charles Muntz (voice)
Jordan Nagai ... Russell (voice)
Bob Peterson ... Dug / Alpha (voice)
Delroy Lindo ... Beta (voice)
Jerome Ranft ... Gamma (voice)
John Ratzenberger ... Construction Foreman Tom (voice)
David Kaye ... Newsreel Announcer (voice)
Elie Docter ... Young Ellie (voice)
Jeremy Leary ... Young Carl (voice)
Mickie McGowan ... Police Officer Edith (voice)
Danny Mann ... Construction Worker Steve (voice)
Donald Fullilove ... Nurse George (voice)
Jess Harnell ... Nurse AJ (voice)
Josh Cooley ... Omega (voice)

 





General INFO:

Title............................: Up 720p Brrip[Dual Audio] [Eng-Hindi]~BONIIN
Genre............................: Animation | Adventure | Comedy | Family
Directer.........................: Pete Docter & Bob Peterson
Writer...........................: Pete Docter & Bob Peterson
IMDB.............................: http://www.imdb.com/title/tt1049413/
year.............................: 11 September 2009 (India)
User Rating......................: 8.4/10   96,223 votes » 
Awards...........................: Won 2 Oscars. Another 40 wins & 29 nominations 
VIDEO Source.....................: Up 1080p Bluray x264-CBGB                                                   
File size........................: 1.70 GiB
Run time.........................: 1h 32mn
Languages........................: English.Hindi
Subtittle........................: English
Ripper...........................: BONIIN[BOW]






Video
ID                               : 1
Format                           : Matroska,AVC
Format/Info                      : Advanced Video Codec
Format profile                   : Main@L4.1
Format settings, CABAC           : Yes
Format settings, ReFrames        : 5 frames
Muxing mode                      : Container profile=Unknown@4.1
Codec ID                         : V_MPEG4/ISO/AVC
Duration                         : 1h 32mn
Bit rate                         : 2 119 Kbps
Overall bit rate                 : 2 620 Kbps
Width                            : 1 280 pixels
Height                           : 690 pixels
Display aspect ratio             : 1.855
Frame rate                       : 25.000 fps
Original frame rate              : 23.976 fps
Resolution                       : 8 bits
Colorimetry                      : 4:2:0
Scan type                        : Progressive
Bits/(Pixel*Frame)               : 0.096
Stream size                      : 1.37 GiB (81%)
Writing library                  : x264 core 78 r1301_DANGEROUS
Writing application              : mkvmerge v3.3.0 ('Language') built on Mar 24 2010 14:59:24
Writing library                  : libebml v0.8.0 + libmatroska v0.9.0
Encoded date                     : UTC 2010-05-24 10:30:49






Audio #1
ID                               : 2
Format                           : MPEG Audio
Format version                   : Version 1
Format profile                   : Layer 3
Format_Settings_Mode             : Joint stereo
Format_Settings_ModeExtension    : MS Stereo
Codec ID                         : A_MPEG/L3
Codec ID/Hint                    : MP3
Duration                         : 1h 32mn
Bit rate mode                    : Constant
Bit rate                         : 128 Kbps
Channel(s)                       : 2 channels
Sampling rate                    : 48.0 KHz
Video delay                      : 15ms
Stream size                      : 84.8 MiB (5%)
Title                            : Ripper~BONIIN~128kb/s
Language                         : English

Audio #2
ID                               : 3
Format                           : MPEG Audio
Format version                   : Version 1
Format profile                   : Layer 3
Format_Settings_Mode             : Joint stereo
Codec ID                         : A_MPEG/L3
Codec ID/Hint                    : MP3
Duration                         : 1h 32mn
Bit rate mode                    : Constant
Bit rate                         : 320 Kbps
Channel(s)                       : 2 channels
Sampling rate                    : 48.0 KHz
Video delay                      : 1s 500ms
Stream size                      : 212 MiB (12%)
Title                            : Ripper~BONIIN~320kb/s
Language                         : Hindi


Screenshots:  
http://img30.imageshack.us/img30/7403/up014837095453.jpg  
http://img30.imageshack.us/img30/1848/up022509095507.jpg  
http://img21.imageshack.us/img21/908/up045220095524.jpg  
http://img21.imageshack.us/img21/6441/up059986095840.jpg  
http://img29.imageshack.us/img29/6408/up124399095638.jpg  
http://img20.imageshack.us/img20/4029/up126155095619.jpg
